<?xml version="1.0" standalone="no"?><!DOCTYPE svg PUBLIC "-//W3C//DTD SVG 1.1//EN" "http://www.w3.org/Graphics/SVG/1.1/DTD/svg11.dtd"><svg t="1581745941800" class="icon" viewBox="0 0 1024 1024" version="1.1" xmlns="http://www.w3.org/2000/svg" p-id="1903" xmlns:xlink="http://www.w3.org/1999/xlink" width="200" height="200"><defs><style type="text/css"></style></defs><path d="M688.42728686 292.63220977a15.64988494 15.64988494 0 0 0-1.01822018-1.11960768l-65.5368805-65.53832888c-2.89678574-2.89678574-6.83496595-4.52622772-10.93102097-4.52622772a15.4369712 15.4369712 0 0 0-10.93102098 4.53636646l-94.36858893 94.56122518c-23.49003553 23.10621142-34.19510722 45.26227713-44.53663229 66.69269799-11.8594408 24.55460429-23.05986285 47.73902893-53.74696255 75.12089611-61.66822313 55.02589345-124.1055429 117.73551107-171.33473754 172.02562094C177.75003267 701.37012552 145.91001225 751.26870823 141.38378454 782.70317864a15.46883584 15.46883584 0 0 0 6.54094218 14.93582726l72.82374501 50.05790591a15.44131637 15.44131637 0 0 0 8.73525739 2.71573664c1.42521858 0 2.87361145-0.2042234 4.27710413-0.6112218a15.42538404 15.42538404 0 0 0 9.9128008-8.69035721c25.79877376-59.53908563 53.33996415-107.44902491 86.69645191-150.80811382 34.2400074-44.49173212 72.32694626-80.56395651 105.0736606-109.98371242 83.73159171-75.23531914 148.09237718-144.15564537 187.33368517-188.72559072 22.26904035-25.27880072 38.99073601-45.59975267 49.12948608-58.19497704a1059.81223583 1059.81223583 0 0 0 12.62853741-16.01053476 652.64872312 652.64872312 0 0 0 3.23570967-4.23220395l0.8139968-1.0978818c5.20552397-6.94504381 3.66588235-14.7634685-0.15787483-19.42584516z" fill="#965353" p-id="1904"></path><path d="M665.56875062 269.66214728c0.36209822 0.36209822 0.70102215 0.73578357 1.01822018 1.11960769 3.82520556 4.66092825 5.36339879 12.48080135 0.15787483 19.42874193l-0.83717109 1.09788178c-0.72419644 0.96173287-1.78731681 2.3768127-3.23570966 4.23220398a937.30861544 937.30861544 0 0 1-12.62564063 16.01053476c-10.11557579 12.59377599-26.86334253 32.91617632-49.10920857 58.19352865-39.23985958 44.57139373-103.60209346 113.49171996-187.33368517 188.71400356-32.74671435 29.41975594-70.83365321 65.5151546-105.07366061 110.00543833-33.35648775 43.36053728-60.91940403 91.26902819-86.71817779 150.78783631a15.34572245 15.34572245 0 0 1-9.91280079 8.7135315 15.30082226 15.30082226 0 0 1-13.01236154-2.12768912L141.29253579 786.23436045a15.43407441 15.43407441 0 0 0 6.63074254 11.40609385l72.82374501 50.0579059a15.44131637 15.44131637 0 0 0 8.7352574 2.71573663c1.42521858 0 2.87361145-0.2042234 4.27710413-0.61122179a15.42538404 15.42538404 0 0 0 9.91280079-8.69035721c25.79877376-59.53908563 53.33996415-107.44902491 86.69645191-150.80811382 34.2400074-44.49173212 72.32694626-80.56395651 105.07366061-109.98371243 83.73159171-75.23531914 148.09237718-144.15564537 187.33368515-188.72559071 22.26904035-25.27880072 38.99073601-45.59975267 49.12948609-58.19497703a1059.81223583 1059.81223583 0 0 0 12.62853741-16.01053477 652.64872312 652.64872312 0 0 0 3.23570967-4.23220395l0.81399679-1.0978818c5.20552397-6.94649219 3.66588235-14.7649169-0.15787481-19.42729354a15.64988494 15.64988494 0 0 0-1.0182202-1.11960769l-65.53688049-65.53832889v-0.01158715l43.69801283 43.69946123z" fill="#FFFFFF" p-id="1905"></path><path d="M878.52305722 430.0542767c5.77039718-6.06586933 5.65742255-15.6368494-0.27229785-21.5665698L647.87518334 178.11068249c-6.01952076-6.03110791-15.8193469-6.03110791-21.83886767 0l-65.53688048 65.54991602c-2.91996003 2.89678574-4.52622772 6.8233788-4.52622772 10.91943384s1.60626769 8.03278684 4.52622772 10.92957258l98.30387235 98.31690788c2.03644038 2.03644038 4.32200432 3.39503288 7.12898969 4.04970646 2.69256234 0.70102215 10.81804633 3.64415646 15.97722173 8.80333186 3.28205824 3.28205824 4.66237665 6.6191554 4.52622771 10.82963347-0.22594928 7.25355148-5.40829897 23.61459732-37.40619421 51.67576075a15.51228762 15.51228762 0 0 0-4.97957468 14.57372903l21.42897248 109.65492726a15.57022334 15.57022334 0 0 0 4.25537825 7.96616077 15.48911333 15.48911333 0 0 0 16.79121851 3.3718586c88.19119334-36.22865081 187.81020641-140.28409123 191.9975102-144.69734431z" fill="#CCD1D9" p-id="1906"></path><path d="M746.20078158 276.42759038L647.87373496 178.10923409c-6.01952076-6.03110791-15.8193469-6.03110791-21.83886768 0l-65.53688049 65.54991603c-2.91996003 2.89678574-4.52622772 6.8233788-4.52622771 10.91943384s1.60626769 8.0226481 4.50305342 10.91943384l98.32704664 98.32849502 87.39892244-87.39892244zM878.25075937 408.4877069l-27.88156272-27.89170146c-26.45344734 29.12573218-91.15605354 94.50473786-189.91472125 157.06661938l5.02447486 25.7524252a15.57022334 15.57022334 0 0 0 4.25537825 7.96616078 15.48911333 15.48911333 0 0 0 16.79121851 3.3718586c88.19119334-36.23154759 187.81020641-140.28553962 191.9975102-144.6987927 5.77039718-6.06442094 5.65742255-15.6368494-0.27229785-21.5665698z" fill="#E6E9ED" p-id="1907"></path></svg>