<?xml version="1.0" encoding="utf-8"?>
<!-- Generator: Adobe Illustrator 22.0.0, SVG Export Plug-In . SVG Version: 6.00 Build 0)  -->
<svg version="1.1" id="图层_1" xmlns="http://www.w3.org/2000/svg" xmlns:xlink="http://www.w3.org/1999/xlink" x="0px" y="0px"
	 viewBox="0 0 200 200" style="enable-background:new 0 0 200 200;" xml:space="preserve">
<path d="M16.3,44.1c-0.1,0.1-0.2,0.1-0.2,0.2L1.6,58.2c-0.6,0.6-1,1.4-1,2.3c0,0.9,0.4,1.7,1,2.3l38.8,37.9c5.1,5,10,7.2,14.7,9.4
	c5.4,2.5,9.6,7.6,15.7,14.1c12.2,13.1,27,23.5,39,33.5c14.8,12.3,54.5,42.2,54.5,42.2l3.8,0l31.9,0c0,0-8.5-8.8-9.5-9.2
	c-13.2-5.5-58.8-45.9-68.4-53c-9.8-7.3-17.8-15.3-24.3-22.3C81.2,97.8,66,84.2,56.1,75.9c-5.6-4.7-28-26.2-30.8-28.3
	c-1.2-0.9-2.4-1.8-3.5-2.7c-0.3-0.2-0.6-0.5-0.9-0.7l-0.2-0.2C19.1,42.9,17.4,43.3,16.3,44.1L16.3,44.1z"/>
<path d="M48,32.7C43.6,38,35.7,45.4,34.1,46.9c-4.3,4-8,7.3-10.8,9.5c-7,5.7-13,10.2-17.3,13.1C6,69.5,6,69.6,5.9,69.7
	C5.6,70,4.8,71,4.8,72.5c0,1.1,0.4,2.1,1.2,2.9l14.6,11.9c0.8,0.8,1.8,1.2,2.9,1.2c1.1,0,2.2-0.4,2.9-1.2
	c9.6-8.9,17.2-15.3,21.2-18.5c3.9-3.1,6.7-4.9,8.4-5.9c2.1-1.2,3.1-1.9,3.5-2c9.2-2.8,15,4.8,43.7,33.5c0.1,0.1,0.5,0,1.8-0.9
	c0.2-0.1,0.3-0.2,0.4-0.3c9.1-7.7,10.1-18.5,7.8-31.7c-1.1-6.3-3-11-3.9-13C101,30,86,16.2,74,7.3h0l-7-3.9c-2.3-1.3-5.3,0-5.9,2.6
	C57.4,19.9,51.7,28.2,48,32.7z"/>
</svg>
