<?xml version="1.0" encoding="utf-8"?>
<!-- Generator: Adobe Illustrator 22.0.0, SVG Export Plug-In . SVG Version: 6.00 Build 0)  -->
<svg version="1.1" xmlns="http://www.w3.org/2000/svg" xmlns:xlink="http://www.w3.org/1999/xlink" x="0px" y="0px"
	 viewBox="0 0 200 200" style="enable-background:new 0 0 200 200;" xml:space="preserve">
<style type="text/css">
	.st0{display:none;}
	.st1{display:inline;fill:#515151;}
	.st2{fill:#515151;}
</style>
<g id="图层_1" class="st0">
	<path class="st1" d="M41.5,141.8c-2,6.4-15.5,27.5-15.5,27.5l5.6,5.9c0,0,8.6-1.1,15-7.5c27.5-49,44.5-81.5,72-130.5
		c0.3-0.8,0.6-1.7,0.8-2.8c0.2-1.1,0.2-2,0.2-2.8c-1.3-1.3-6.7-5.8-10.3-6.7c-1.1-0.3-2-0.4-2.9-0.4c-0.7,0.7-1.3,1.6-2,2.6
		c-0.3,0.4-0.4,0.7-0.7,1.1C76.2,77.1,56.4,114.5,41.5,141.8z"/>
	<path class="st1" d="M94,100.7l-13.2-7.6l-9.4-5.5c0,0,16.2-22.8,12.7-36c-2.9-10.3-22-17.2-22-17.2s3.8-9.4,4.3-10.3
		c1.5-3.1,4-7.3,4-7.3s27.2,10.3,55.3,20.5c10.7,3.9,33.4,12.5,46.7,20.9c1.3,0.8,7.6,4.9,10.8,12.3c1.1,2.5,0.6,16.9,0.6,16.9
		s-6.1-3.1-6.9-3.6c-7.1-5-48.4-19.3-65.7-9.4"/>
</g>
<g id="图层_3">
	<path class="st2" d="M183,70.7c-3.2-7.4-9.5-11.5-10.8-12.3c-13.4-8.4-36-17-46.7-20.9c-2.1-0.8-4.2-1.5-6.2-2.3
		c0.1-0.3,0.1-0.6,0.2-0.9c0.2-1.1,0.2-2,0.2-2.8c-1.3-1.3-6.7-5.8-10.3-6.7c-1.1-0.3-2-0.4-2.9-0.4c-0.7,0.7-1.3,1.6-2,2.6
		c-0.3,0.4-0.4,0.7-0.7,1.1c-0.2,0.4-0.5,0.8-0.7,1.2C84.5,22.4,70.3,17,70.3,17s-2.5,4.2-4,7.3C65.8,25.1,62,34.5,62,34.5
		s19.1,6.9,22,17.2c1.2,4.3,0.2,9.5-1.6,14.7c-16.9,30.8-30.2,55.7-41,75.4c-2,6.4-15.5,27.5-15.5,27.5l5.6,5.9c0,0,8.6-1.1,15-7.5
		c15.1-27,27.1-49,39.4-71.5l7.9,4.5l17-26c17.3-9.9,58.6,4.4,65.7,9.4c0.8,0.5,6.9,3.6,6.9,3.6S184.2,73.3,183,70.7z"/>
</g>
<g id="图层_2">
</g>
</svg>
