<?xml version="1.0" encoding="utf-8"?>
<!-- Generator: Adobe Illustrator 22.0.0, SVG Export Plug-In . SVG Version: 6.00 Build 0)  -->
<svg version="1.1" xmlns="http://www.w3.org/2000/svg" xmlns:xlink="http://www.w3.org/1999/xlink" x="0px" y="0px"
	 viewBox="0 0 200 200" style="enable-background:new 0 0 200 200;" xml:space="preserve">
<style type="text/css">
	.st0{display:none;}
	.st1{display:inline;fill:#515151;}
	.st2{fill:#515151;}
</style>
<g id="图层_2_1_" class="st0">
	<path class="st1" d="M100,10l-3.3,6.9c-4.4,9.4-6.7,19.7-6.7,30c0.4,7.5,0.8,15.2,1,23.1c0.7,23.5,0.2,58.6-1,79.8
		c6.7,0,13.3,0,20,0c-1.2-21.1-1.7-56.3-1-79.8c0.2-7.9,0.6-15.7,1-23.3c0-4.1-0.4-9.3-1.7-15.1c-1.1-4.9-2.8-9.8-4.9-14.4L100,10z"
		/>
	<rect x="96.4" y="151.1" class="st1" width="7.1" height="26"/>
	<path class="st1" d="M106.2,181.3H93.8c-0.5,0-0.9-0.4-0.9-0.8l2.8-2.7c0-0.4,0.4-0.8,0.9-0.8h6.7c0.5,0,0.9,0.4,0.9,0.8l2.8,2.7
		C107.1,180.9,106.7,181.3,106.2,181.3z"/>
	<path class="st1" d="M109.9,153.9l2.3,0c0.7,0,1.2-0.4,1.2-0.7l0-0.2c0,0,0-0.1,0-0.1l-0.1-0.4c-0.1-1-0.3-2-0.4-3
		c0,0-0.1-0.1-0.3-0.2c-0.1,0-0.2,0-0.2-0.1c-0.3,0-0.6,0-0.8,0h-0.1H88.8h-0.1h-0.2c-0.2,0-0.4,0-0.7,0c-0.1,0-0.2,0-0.2,0.1
		c-0.2,0.1-0.3,0.2-0.3,0.2c-0.1,1-0.3,2-0.4,3l-0.1,0.4c0,0,0,0.1,0,0.1l0,0.2c0,0.3,0.5,0.7,1.2,0.7l2.3,0l0,0l0.1,0"/>
	<path class="st1" d="M100.2,151.5"/>
	<ellipse class="st1" cx="99.9" cy="167.1" rx="5.4" ry="1.4"/>
</g>
<g id="图层_3">
	<path class="st2" d="M75.1,156.2l0.2-0.4c0.5-1,1.1-2,1.6-2.9c0-0.1,0-0.2-0.2-0.4c-0.1-0.1-0.1-0.2-0.2-0.3
		c-0.3-0.2-0.6-0.5-0.9-0.7l-0.1-0.1l-1.6-1.3c13.2-19.2,36.4-49.7,53.1-69.2c5.6-6.7,11.4-13,17-19.3c2.8-3.5,5.9-8.4,8.5-14.5
		c2.2-5.2,3.7-10.8,4.6-16.5l1.3-9.1l-8.2,3.2c-11.1,4.4-20.6,11.4-27.6,20.3c-4.7,6.8-9.5,13.8-14.7,20.8
		c-15.2,20.7-39.5,50.3-55.1,67.6l-1.3-1l-0.1-0.1l-0.2-0.1c-0.2-0.2-0.5-0.4-0.7-0.6c-0.1,0-0.2-0.1-0.3-0.1
		c-0.3-0.1-0.4-0.1-0.5-0.1c-0.8,0.8-1.6,1.5-2.5,2.3l-0.3,0.3c0,0,0,0.1,0,0.1l-0.1,0.1c-0.2,0.2,0.1,1,0.8,1.6l2.4,2l0,0l0.1,0.1
		l6.4,5l-8.3,10.5c-1.4-0.8-2.5-1.1-2.8-0.7s0.2,1.3,1.3,2.6l-6.1,7.7c-0.5-0.3-1-0.3-1.3,0l-4.9-0.1c-0.3,0.4-0.1,1,0.4,1.5
		l13.2,10.4c0.5,0.4,1.2,0.5,1.5,0.1l-1.2-4.7c0.2-0.3,0.1-0.8-0.2-1.2l6.1-7.7c1.3,0.7,2.3,0.9,2.6,0.6c0.3-0.4-0.2-1.3-1.2-2.4
		l8.3-10.5l6.7,5.3l2.5,1.9c0.7,0.6,1.6,0.6,1.7,0.4L75.1,156.2C75,156.2,75.1,156.2,75.1,156.2z"/>
</g>
</svg>
