<?xml version="1.0" encoding="utf-8"?>
<!-- Generator: Adobe Illustrator 22.0.0, SVG Export Plug-In . SVG Version: 6.00 Build 0)  -->
<svg version="1.1" id="图层_1" xmlns="http://www.w3.org/2000/svg" xmlns:xlink="http://www.w3.org/1999/xlink" x="0px" y="0px"
	 viewBox="0 0 200 200" style="enable-background:new 0 0 200 200;" xml:space="preserve">
<path d="M159.9,173.9c-14.1,4.1-16.7-1.7-15.3-12.4c1.2-8.6,2.4-17.1,3.6-25.7c0.8-6.3,1.6-12.7,2.5-20.1c-2.9,2.4-4.9,4.1-7,5.7
	c-12.6,9.3-27.4,8.9-39.6-0.9c-1.5-1.3-3-2.7-4.5-3.9c-8.2-6.5-16.5-5.3-22.8,2.9c-2.1,2.7-4.5,5.6-7.5,7.2
	c-7.4,4-15.1,7.6-22.9,10.7c-3.1,1.2-4.7,2.1-4.5,5.7c0.3,6.8,0.2,13.6,0,20.5c-0.1,2.5,0.4,4.1,3,5.4c2.2,1.1,3.6,3.6,6,6.1
	c-12.1,1.1-13.1,0.7-15.6-5.7c-0.5-1.6-0.8-3.2-0.7-4.8c-0.1-7.2,0.3-14.3-0.1-21.5c-0.3-6.7,0.4-12.3,6.3-17.1
	c5-4.1,7.5-10.7,4.8-17.2c-6-14.5,1.5-29,16.8-32.9c10.4-2.6,20.7-1.4,31.2,0.1c8.5,1.2,17.1,1.4,25.7,0.6c9.2-0.9,12.8-5.5,14-14.7
	c2.6-19.4,13.6-31.7,32.5-36.6c7.4-1.9,24.6-1.6,31.2,2.3c-9.7,12.3-6,28.2-11,41.7c-7.2,0.4-7.7-0.5-8.2-7.4
	c-0.2-3.2-2.6-6.3-4.1-9.7c-6.6,10.1-5.6,19.3-1.9,29.1c2.4,6.2,1.4,12.8-1.6,18.9c-2.8,5.5-5.8,10.9-8,16.6
	c-6.2,16.3-7.9,33.6-10.3,49.6L159.9,173.9L159.9,173.9z"/>
<path d="M19.5,93.5c2.1-4.7,3.8-9.5,5.7-14.3c3.5-8.6,9.7-13.7,19.1-14.6c8.2-0.8,15.7,1.4,23.8,5.1c-2.5,0.5-4.3,0.8-6.1,1.2
	c-11.9,2.6-21,8.9-26.1,20.2c-1.5,3.3-2.7,6.8-4.2,10.1C26.1,114,22,118.7,2.2,114.5C10.6,109.4,15.7,101.9,19.5,93.5z M69.2,150.6
	c1.7-5.3,4.1-9.6,4.2-14.1c0.3-8.7,6.3-13.2,11.8-18c3.7-3.3,7.8-1,11.4,1.3c3.7,2.3,2.7,5.3,1.5,8.3c-2.4,6-6.9,9.9-12.5,13
	c-4,2.2-7.3,5.4-11,8.2c3.8,5.5,6.6,10.2,10.1,14.4c3.3,3.8,7.4,7,11.1,10.5l-1.1,1.7c-3.8-1.5-8.6,2.3-11.7-2.5
	C78.2,165.8,73.6,157.9,69.2,150.6L69.2,150.6z M166.5,128.1c3.4,0.9,13.7-7.7,18.7-15.5l-15.4-1.1c3.6-10.3,3.6-10.3,13.5-8.4
	c2.3,0.4,4.6,0.9,6.8,1.5c1.8,0.5,4.8,1.4,4.8,2.3c0.1,3.1,0.4,7.4-1.4,9.2c-9.4,9-19.4,17.5-30.2,27L166.5,128.1z"/>
</svg>
