<?xml version="1.0" encoding="utf-8"?>
<!-- Generator: Adobe Illustrator 22.0.0, SVG Export Plug-In . SVG Version: 6.00 Build 0)  -->
<svg version="1.1" id="图层_1" xmlns="http://www.w3.org/2000/svg" xmlns:xlink="http://www.w3.org/1999/xlink" x="0px" y="0px"
	 viewBox="0 0 270.5 200" style="enable-background:new 0 0 270.5 200;" xml:space="preserve">
<style type="text/css">
	.st0{fill:#515151;}
</style>
<path class="st0" d="M197.9,5.2c1.9,0,3.9,0.2,5.8,0.5c1-1.1,1.9-2.3,2.6-3.7c0.7,0.1,1.4,0.2,2.1,0.5l-1,6.8
	c6.6-0.1,6.6,2.1,10,4.7v2.6c-1.6-0.2-3.1-0.9-4.2-2.1H210c1,2.9,4,3,5.2,5.2c0.8,1.5,0.2,2.9,1,4.2l5.2,4.7
	c3.3,4.5,5.4,8.2,10.5,11c0.2,1.1,0.5,2.2,1,3.1c0.1,5.1-1,5.5-2.6,8.4c-1.6,0-3.3,0.1-4.2-0.5h-0.5v3.1c-2.3,0.1-6,0.4-7.3-0.5
	c-4.1-0.5-7.6-6.8-11.5-8.4c-2.6-1-4.6,0.7-6.3-1c-2.3,0.3-1.8,0.6-3.1,1.6c-0.3,6.4-1.6,13.2,1,19.4c1.9,4.4,5.6,9.1,7.3,14.2
	c1.8,5.2,1,11,4.2,14.7c-0.1,8.9-0.1,9,3.1,14.2c6.5-0.2,14.6-5,21-3.1c3.9,1.1,6.4,3.8,9.4,5.2c0.1,4.3,0.3,8.7-1.6,11
	c-2.4,3.2-7,4.7-9.4,7.9c-2.2,3-5.4,5.5-7.3,8.4c-1,1.4-1,3-2.1,4.2c1.5,2.5,6.1,2.8,7.9,5.2c8,11.1,16,25.1,30.4,29.4
	c0,0.7-0.1,1.5-0.5,2.1c0.5,1,8.1,10,8.9,10.5c0.1,1.1-0.1,2.2-0.5,3.1c-2.9,2.2-13.4,1.1-15.7-1c-5.2-2.2-2.8-8-5.8-11v-0.5
	c-0.9,0.4-1.7,1.2-2.1,2.1c-5.4-1.2-5.2-9.7-7.9-13.6c-5.4-8-19.1-8.5-23.6-17.3c-3.8,1.3-8.7,4-11,6.8h-2.6
	c-1.1-5.8,1.5-9.6,2.6-14.2c-6.3-2.3-12.4-4.9-18.4-7.9c-4.8-2.3-9-1.5-12.1-5.2c-4.4,0.7-10.1,2.1-14.7,3.1
	c-8.5,2-19.4-3.2-24.7-5.2c-2.5-1-5.3-0.3-7.3-1.6c-1.3,0.1-2.5,0.4-3.7,1c-0.3,1-0.8,1.9-1.6,2.6c0.4,14.2-8.8,7.5-16.8,12.1
	l-1.6,0.5c3.1,6.4,23.4,11,29.9,15.7c5.6,4.1,4.2,13.1,8.4,17.8c0.1,2,0.3,5.1-0.5,6.3c-2.7,1.5-13.7-6.4-16.3-7.9
	c-0.1-2.5-0.2-4.6,1-5.8c0.1-3-0.1-4.4-1.6-5.8c-1.4-0.6-4.8,1-5.8,2.6c-4.5-0.4-5-7.3-8.9-9.4c-4-2.1-8.3-3.9-12.6-5.2
	c-2.7-0.9-4.3,0-6.8-1c-3.8-1.6-6.6-5.2-9.4-7.9c0.5-5.3,5.2-4.7,8.9-6.8c1.3-0.7,2.3-2.3,3.7-3.1v-1c-3.5,0.1-6.2,1.4-8.9,2.1H71.9
	c-3.6,1-14.5,6.1-16.3,8.4c-1.6,2.2-3.2,10.8-4.2,14.2c-1.6,5.4-2.8,17.4,0.5,22.6v4.2c0.6,0.9,2.9,1.3,3.7,2.1
	c3.1,3.2,5.9,7.3,9.4,10v3.7c-3,0.4-9.4,2.5-13.6,1c-1.2-0.4-1.1-0.9-3.7-1c-0.5-1.1-1-2.2-1.6-3.1h-2.1c0.3-3.6,1.1-6.8,1-11.5
	c-4.4-0.1-6-1.6-8.9-3.1c0.3-5.8,2.3-9.8,3.7-14.2c1.1-3.6,0-6,1-9.4c2.5-8.3,5.2-18.7,5.2-29.4c2-1,4.1-1.9,6.3-2.6
	c3.8-1.1,6.8,0.4,10-1c1.5-0.7,2.4-2.7,3.7-3.7c-0.3-11.3-4.9-22.7,3.1-31v-1c-6.2,2.7-5.9,12.1-11,15.7c-1.9,1.3-4.3,1.3-6.3,2.6
	c-2.4,1.6-3.3,5.6-5.8,7.3c-7.9,5.4-18.9,11.6-24.1,19.4l-3.1-0.5c-1.9,3.5-5.1,5.8-5.2,11c-2.3-0.1-2.5,0.2-3.1-1.6
	c-2,1.2-2.7,4.9-4.2,6.8c-1,1.2-2.7,1.8-3.7,3.1H0c0.2-4,2.1-3.3,3.1-5.8c1.2-2.7,0.1-4.9,1-7.9c2.7-8.5,8.4-17.5,15.2-22V116
	c-4.8,1.8-9.5,5-11,10H6.3c0.4-13.5,16.1-16.3,25.7-21c3.8-1.8,5.8-5.5,8.9-7.9c-0.1-2.4-1.1-5.1,0-6.8v-3.1
	c-5.1,1.8-4.7,7.8-7.3,12.1c-0.8,1.3-2.3,2.3-3.1,3.7h-3.1c0.7-2.8,2.2-5.3,4.2-7.3V94c-1.9,0.9-1.6,2.1-4.2,2.6
	c0-3.5,0.5-5.6,2.1-7.3c0.1-3.1,0.1-4.4-2.1-5.2c4-16.5,7.5-24.5,24.7-28.3c3.9-0.7,7.9-0.4,11.5,1c7.3,3.3,10.1,9.7,14.7,15.7
	c1.3,1.8,3.9,2.5,5.2,4.2c2.8-0.3,4.3-1.5,6.3-2.1c3-0.9,14.6-0.9,17.8,0c5.4,1.5,19.8,6.5,27.8,4.2c6.4-1.9,10.7-6.7,17.8-7.3
	c-0.8-1.4-5.7-2.3-6.8-1.6h-1.6v-1c1.6-0.6,3.2-1.3,4.7-2.1h0.5v-0.5c-3.4,0.1-4.2,0.9-7.3,1c0.2-1.6,1.2-3,2.6-3.7V63
	c-3,0.5-3.6,1.9-6.8,2.1c0.2-2.8,2.1-5.3,4.7-6.3l-0.5-3.1h1.6c0.4-1,0.5-2.1,0.5-3.1c2.1-1,4.2-2,6.3-3.1v-2.1
	c3.4-0.3,4.6-1.8,6.8-3.1v-1c-5.4,0.6-7.8,3.9-13.1,4.2v-1.6h-0.5v-0.5c-2.1,0.3-4.2,0.3-6.3,0v-1.6c1.7,0.2,1.7,0.5,2.6,0
	c6.2-0.8,6.1-9.4,15.7-11c-0.5-1.2-0.2-0.9-1-1.6c1.1-4.6,7.8-9.6,13.1-10c-0.8-1.3-6.7-2-8.4-2.1v-0.5h-0.5
	c0.2-2.6,0.6-2.2,1.6-3.7c4,0,6.6,0.4,10,0v-2.1c2.7-0.3,13.6-4.8,15.2-6.3c6.5,0.2,7.8-2.5,10-6.3l2.1,0L197.9,5.2z M161.2,28.9
	v0.5c2.4-0.1,2.5-0.6,4.2-1v-1C163.9,27.6,162.5,28.1,161.2,28.9z M159.6,29.4v1h1v-1H159.6z M220.5,48.3v1h1v-1H220.5z M222.6,50.4
	h0.5v-1C222.8,49.6,222.6,50,222.6,50.4z M145.9,61.9v1h1v-1H145.9z M215.8,124.9c-2.4,1.1-5,0.6-6.8,2.1h-2.1
	c1.5,2.9,5.5,4.6,7.3,7.3c6.6-0.5,11.8-8.3,12.6-14.7C221.6,120.1,219.4,123.3,215.8,124.9z"/>
</svg>
